<svg data-v-423bf9ae="" xmlns="http://www.w3.org/2000/svg" viewBox="0 0 NaN 90" class="iconLeft"><!----><!----><!----><g data-v-423bf9ae="" id="37658cf6-1a96-42d3-89d4-509d55a36c15" fill="#000000" transform="matrix(Infinity,0,0,Infinity,0,45)"><path d=""></path></g><!----><g data-v-423bf9ae="" id="e1539ee2-b9f9-40aa-8e7f-d7680b0c832f" transform="matrix(1.0043197785478157,0,0,1.0043197785478157,-9.095991177569829,-4.021058930719754)" stroke="none" fill="#006678"><path d="M63.163 5.283c1.626.171 3.202.587 4.796.926 1.42.301 2.788.76 4.155 1.215 1.193.397 2.358.883 3.509 1.4.858.386 1.701.802 2.525 1.244.855.459 1.704.939 2.525 1.467.79.509 1.585 1.01 2.345 1.56a42.842 42.842 0 0 1 3.364 2.709c.077.069.211.106.19.253-.477-.14-.867-.448-1.245-.74-.585-.451-1.243-.761-1.875-1.122-.934-.534-1.897-1.026-2.906-1.388-1.054-.378-2.091-.806-3.19-1.068-1.101-.263-2.195-.563-3.296-.829l-.732-.245c-.104-.086-.218-.146-.359-.135-.007-.016-.019-.02-.035-.012-.395-.157-.785-.328-1.209-.397-.011-.016-.025-.021-.043-.013a.736.736 0 0 0-.373-.115l-.13-.015-.559-.135c-.012-.017-.027-.021-.046-.013-.402-.236-.871-.244-1.306-.368-.775-.222-1.561-.426-2.378-.44l-.03-.013-.033.004c-.052-.021-.103-.053-.157-.061-.984-.159-1.965-.339-2.953-.467-1.033-.133-2.068-.261-3.112-.277-2.304-.151-4.608-.123-6.912.013-.021.001-.041.018-.062.027-.324-.003-.648-.009-.964.076l-.136.007c-.334-.033-.662.037-.989.075-.758.089-1.523.141-2.267.327l-.03-.004-.027.014a2.215 2.215 0 0 0-.769.129l-.269.032c-.039-.014-.066-.006-.08.034l.005-.002c-.484.068-.976.084-1.45.216l-.033-.002-.029.017c-.191.019-.383.033-.559.123l-.131.018c-.322.08-.662.096-.961.263-.819.2-1.655.347-2.453.611-1.457.482-2.927.925-4.355 1.505-.966.392-1.925.806-2.869 1.24-.904.415-1.792.875-2.668 1.356a47.99 47.99 0 0 0-3.961 2.41 47.985 47.985 0 0 0-3.233 2.387c-.485.394-.963.809-1.454 1.199-.485.385-.937.831-1.399 1.253-.845.772-1.644 1.591-2.434 2.413-.406.422-.807.869-1.188 1.325-.439.525-.889 1.046-1.325 1.574-.627.759-1.195 1.566-1.775 2.363a42.278 42.278 0 0 0-2.137 3.238 51.148 51.148 0 0 0-2.192 4.086c-.446.931-.794 1.905-1.272 2.816-.299.57-.339 1.226-.709 1.805a48.364 48.364 0 0 1 1.019-3.628 53.637 53.637 0 0 1 1.568-4.113c.54-1.279 1.134-2.538 1.828-3.74.446-.772.878-1.553 1.354-2.31a57.9 57.9 0 0 1 1.508-2.299 43.8 43.8 0 0 1 3.713-4.638 71.07 71.07 0 0 1 2.152-2.207c.913-.91 1.883-1.752 2.866-2.575.486-.407.992-.807 1.504-1.191.714-.537 1.453-1.04 2.174-1.566.683-.498 1.442-.889 2.154-1.348a24.503 24.503 0 0 1 2.581-1.436c.779-.378 1.525-.832 2.36-1.113.625-.21 1.203-.566 1.825-.804 1.822-.698 3.671-1.323 5.561-1.808a46.95 46.95 0 0 1 8.356-1.372c.347-.025.706.005 1.041-.129h6.214c.477.119.963.129 1.451.134.022.01.044.012.067.005.78.115 1.56.225 2.349.269z"></path><path d="M45.212 30.841c-1.029.819-1.928 1.766-2.744 2.793a16.098 16.098 0 0 0-2.288 3.895c-.788 1.913-1.05 3.903-1 5.962.04 1.673.383 3.274.843 4.872a27.149 27.149 0 0 0 1.406 3.769c.384.842.807 1.669 1.27 2.477.451.786.937 1.548 1.446 2.291.9 1.312 1.904 2.55 2.999 3.708a36.651 36.651 0 0 0 3.601 3.345c.562.453 1.13.899 1.714 1.318a39.053 39.053 0 0 0 2.781 1.828c1.191.709 2.42 1.36 3.686 1.926 1.718.769 3.489 1.403 5.289 1.955.24.073.496.095.744.141 2.978.857 6.027 1.112 9.11 1.062 1.473-.024 2.943.003 4.384.352.41.099.815.244 1.201.415.352.156.672.401.701.825.029.419-.246.691-.561.93-.794.603-1.708.903-2.663 1.144-2.322.586-4.677.709-7.054.584-1.794-.094-3.561-.382-5.331-.679-1.32-.222-2.59-.61-3.886-.913-1.325-.31-2.571-.847-3.874-1.213-.103-.029-.199-.117-.319-.052.019-.125-.059-.13-.155-.13.039.073.088.114.159.127.015.214.225.241.341.358.494.498 1.066.906 1.633 1.306.718.507 1.435 1.024 2.231 1.412.236.115.446.282.678.408a32.567 32.567 0 0 0 5.038 2.194c1.979.673 4.013 1.147 6.075 1.509 3.213.564 6.449.582 9.696.512 2.783-.06 5.514-.496 8.247-.958.794-.134 1.574-.324 2.359-.491.086-.018.169-.06.297.005-.357.154-.676.343-1.021.43-.838.212-1.61.618-2.445.82-1.448.35-2.843.884-4.318 1.154-1.16.212-2.296.578-3.466.749-2.455.358-4.906.756-7.39.892-1.944.106-3.887.104-5.831.059-2.442-.056-4.853-.401-7.263-.782-1.388-.22-2.737-.591-4.106-.883-1.331-.284-2.603-.745-3.887-1.162-1.382-.448-2.726-1.014-4.057-1.609a63.6 63.6 0 0 1-2.63-1.268c-.983-.496-1.932-1.06-2.917-1.555-1.028-.516-1.959-1.173-2.878-1.863a21.575 21.575 0 0 1-1.619-1.322 34.972 34.972 0 0 1-2.161-2.145 45.982 45.982 0 0 1-1.446-1.65 33.481 33.481 0 0 1-1.932-2.539c-.284-.415-.576-.825-.856-1.243-.335-.714-.867-1.31-1.21-2.02v-.003c-.033-.177-.171-.283-.28-.41v-.003l-.676-1.289c.151.637.203 1.295.511 1.879.383 1.103.762 2.205 1.215 3.286.368.879.844 1.702 1.198 2.584.106.263.259.509.404.755.576.976 1.119 1.975 1.748 2.916a43.49 43.49 0 0 0 2.255 3.113c.377.468.774.93 1.141 1.41.341.446.744.863 1.142 1.273.517.534.99 1.114 1.537 1.613.421.385.789.825 1.238 1.179.503.395.911.9 1.445 1.26.174.258.398.457.693.567.689.72 1.512 1.277 2.299 1.876.591.45 1.18.907 1.798 1.319.762.508 1.528 1.011 2.292 1.515.824.543 1.677 1.037 2.523 1.539a46.452 46.452 0 0 0 3.506 1.881c1.051.506 2.096 1.032 3.189 1.448.148.056.269.155.397.25.292.217.688.187 1.018.338.206.094.429.148.706.24-.173.103-.284.049-.396.027-1.5-.292-2.962-.722-4.429-1.144a59.468 59.468 0 0 1-3.91-1.299 55.082 55.082 0 0 1-3.446-1.378 79.046 79.046 0 0 1-2.774-1.276c-.924-.454-1.874-.867-2.74-1.437-.151-.1-.304-.212-.499-.218l-.138-.054.003.004-.071-.074.003.002c-.559-.408-1.176-.724-1.761-1.089-1.013-.631-2.005-1.297-3.005-1.949l.002.002c-.027-.068-.085-.095-.149-.114-.665-.488-1.343-.96-1.992-1.469-.62-.486-1.21-1.011-1.815-1.516-1.783-1.49-3.413-3.137-4.947-4.877-.46-.521-.885-1.079-1.33-1.614-.823-.987-1.548-2.044-2.258-3.106a29.223 29.223 0 0 1-1.113-1.774c-.545-.956-1.099-1.911-1.562-2.904-.459-.984-.918-1.971-1.323-2.984-.584-1.462-1.026-2.967-1.535-4.452-.069-.201-.101-.414-.163-.673-.499.703-.67 1.456-.739 2.24-.161 1.834.195 3.611.568 5.392.342 1.632.854 3.212 1.378 4.787.431 1.293.964 2.552 1.429 3.834.222.614.383 1.249.505 1.893.025.132.081.309-.067.374-.159.07-.265-.084-.36-.201-.792-.974-1.371-2.078-1.977-3.17-.915-1.648-1.693-3.362-2.462-5.077-.664-1.482-1.201-3.021-1.794-4.535.009-.041-.009-.063-.049-.07l-.002-.002c-.092-.705-.375-1.349-.633-2.001l-.089-.294-.035-.118c-.035-.317-.175-.602-.266-.902l-.014-.134c-.016-.101-.024-.203-.05-.301-.433-1.624-.829-3.255-.863-4.949v-1.18c-.035.238-.146.463-.109.704-.199 1.459-.34 2.923-.369 4.397-.067.117-.047.246-.048.37-.016 1.145-.053 2.29-.033 3.434.019 1.041.068 2.083.23 3.115.042.933.269 1.841.385 2.764.111.884.428 1.711.685 2.557.285.937.772 1.79 1.06 2.722.109.353.162.716.119 1.088-.031.272-.187.325-.413.221a2.16 2.16 0 0 1-.729-.565c-.848-.974-1.489-2.082-2.073-3.226-.768-1.503-1.377-3.071-1.921-4.666-.041-.121-.078-.24-.16-.34-.012-.338-.172-.637-.253-.957-.265-1.043-.561-2.078-.844-3.115l-.009-.071c-.032-.476-.087-.947-.258-1.397-.142-.873-.281-1.746-.428-2.618-.182-1.079-.272-2.166-.327-3.258a53.468 53.468 0 0 1 .069-6.758c.122-1.617.49-3.198.817-4.786.25-1.211.701-2.35 1.067-3.519.186-.596.539-1.138.78-1.719.475-1.147 1.066-2.231 1.657-3.32.388-.715.84-1.387 1.256-2.081.469-.783 1.035-1.509 1.565-2.255.391-.552.821-1.073 1.244-1.595.422-.521.864-1.034 1.314-1.536a44.458 44.458 0 0 1 2.295-2.398c.449-.431.914-.86 1.389-1.271a64.955 64.955 0 0 1 1.758-1.482c.809-.653 1.631-1.298 2.5-1.866.641-.419 1.28-.845 1.933-1.248a38.604 38.604 0 0 1 2.657-1.513 52.387 52.387 0 0 1 6.362-2.768c1.121-.392 2.221-.853 3.377-1.164.677-.182 1.371-.393 2.017-.711.217-.106.488-.101.734-.147.627-.09 1.22-.309 1.822-.494.016.009.028.005.037-.01a1.29 1.29 0 0 0 .489-.139l.13-.018c.331-.066.661-.137.979-.258l.129-.016a.58.58 0 0 0 .348-.055l.135-.013c.501-.037.974-.215 1.468-.291.043-.007.076-.076.114-.116.141.002.283.051.421-.013a.381.381 0 0 0 .273-.055h.002a12.26 12.26 0 0 0 1.52-.275l.068-.007 1.178-.13a.061.061 0 0 0 .065-.005c.362.008.717-.036 1.069-.121.015.012.028.011.038-.006a6.653 6.653 0 0 0 1.274-.132l.02.013.021-.011 2.239-.139 1.969-.015 2.417.135.068.004c.344.129.733.045 1.076.207-.043.132-.173.131-.233.211-1.092-.058-2.15.196-3.209.385-1.809.323-3.621.625-5.398 1.115-1.183.326-2.369.642-3.55.978-1.305.372-2.571.853-3.839 1.319a47.114 47.114 0 0 0-3.267 1.363c-.994.453-1.964.949-2.924 1.461-.835.445-1.654.927-2.459 1.435-.737.465-1.458.953-2.17 1.451-.955.668-1.856 1.409-2.736 2.177a33.635 33.635 0 0 0-2.321 2.24c-.403.427-.79.88-1.184 1.32-.418.467-.832.944-1.226 1.425-.433.529-.874 1.059-1.297 1.599a69.575 69.575 0 0 0-1.553 2.055 36.199 36.199 0 0 0-1.547 2.312c-.467.763-.924 1.535-1.316 2.333-.653 1.327-1.232 2.694-1.42 4.184-.069.548-.113 1.104.11 1.634.087.206.157.449.427.49.277.043.433-.159.539-.357.39-.726.857-1.41 1.158-2.184.078-.201.194-.389.304-.576.499-.849.914-1.743 1.399-2.601.422-.745.844-1.493 1.287-2.225a38.808 38.808 0 0 1 1.928-2.879c1.258-1.71 2.635-3.323 4.224-4.737a24.118 24.118 0 0 1 2.62-2.044 24.623 24.623 0 0 1 2.829-1.622c.778-.384 1.527-.836 2.357-1.116.346-.117.669-.301 1.003-.454 1.034-.472 2.106-.859 3.182-1.21 2.131-.696 4.308-1.218 6.564-1.313.126-.005.252-.001.423-.001-.115.171-.279.206-.414.242-.674.179-1.249.581-1.896.814-.823.297-1.563.762-2.357 1.119-.823.369-1.598.846-2.386 1.291-.858.484-1.73.951-2.553 1.49-.689.451-1.391.883-2.055 1.374-.626.463-1.263.912-1.875 1.393a43.52 43.52 0 0 0-1.864 1.568c-.447.393-.862.82-1.283 1.233a16.804 16.804 0 0 0-1.423 1.617c-.506.643-.948 1.323-1.41 1.992-.32.463-.541.98-.838 1.456-.469.749-.832 1.561-1.168 2.37-.928 2.235-1.623 4.539-1.715 6.983-.023.622.018 1.243.197 1.845.079.265.181.596.47.624.279.027.426-.296.528-.527.325-.733.64-1.473.915-2.227.454-1.24.98-2.45 1.527-3.649.442-.968.928-1.919 1.453-2.85 1.18-2.09 2.564-4.017 4.363-5.617a26.947 26.947 0 0 1 2.415-1.928c1.303-.917 2.649-1.771 4.095-2.458 1.239-.588 2.512-1.075 3.85-1.371.693-.153 1.408-.156 2.126-.126-.757.321-1.476.705-2.206 1.065-.923.455-1.811.974-2.665 1.56-.776.53-1.549 1.057-2.253 1.681z"></path></g><!----></svg>