<svg data-v-fde0c5aa="" xmlns="http://www.w3.org/2000/svg" viewBox="0 0 300 300" class="font"><!----><defs data-v-fde0c5aa=""><!----></defs><rect data-v-fde0c5aa="" fill="transparent" x="0" y="0" width="300px" height="300px" class="logo-background-square"></rect><defs data-v-fde0c5aa=""><!----></defs><g data-v-fde0c5aa="" id="44750eef-1e3c-430d-862f-37fff9befd89" fill="#000000" transform="matrix(3.502069421661044,0,0,3.502069421661044,37.758675411494835,115.97753447224495)"><path d="M0.64 8.65C0.64 11.37 2.91 13.57 5.70 13.57C7 13.57 8.25 13.05 9.16 12.21L8.79 11.80C7.97 12.54 6.87 12.99 5.71 12.99C3.23 12.99 1.23 11.05 1.23 8.64C1.23 6.24 3.23 4.31 5.71 4.31C6.87 4.31 7.98 4.76 8.79 5.52L9.14 5.07C8.23 4.26 7.01 3.75 5.70 3.75C2.91 3.75 0.64 5.94 0.64 8.65ZM9.69 15.86C10.07 16.14 10.54 16.28 11.07 16.28C11.93 16.28 12.64 15.69 13.09 14.60L16.48 6.26L15.86 6.26L13.24 12.87L10.56 6.26L9.94 6.26L12.95 13.55L12.61 14.38C12.26 15.23 11.70 15.69 11.05 15.69C10.64 15.69 10.26 15.58 9.94 15.36ZM17.92 13.55L18.49 13.55L18.49 9.98C18.49 8.08 19.53 6.87 21.28 6.83C22.74 6.83 23.62 7.71 23.62 9.21L23.62 13.55L24.19 13.55L24.19 9.98C24.19 8.08 25.21 6.87 26.96 6.83C28.43 6.83 29.30 7.71 29.30 9.21L29.30 13.55L29.88 13.55L29.88 9.10C29.88 7.32 28.85 6.24 27.10 6.24C25.61 6.27 24.57 7.00 24.12 8.36C23.87 7.03 22.90 6.24 21.43 6.24C19.99 6.27 18.97 6.93 18.49 8.18L18.49 6.26L17.92 6.26ZM31.77 9.90C31.77 12.05 33.29 13.57 35.36 13.57C37.45 13.57 38.96 12.05 38.96 9.90C38.96 7.77 37.45 6.24 35.36 6.24C33.29 6.24 31.77 7.77 31.77 9.90ZM32.34 9.91C32.34 8.08 33.61 6.80 35.36 6.80C37.13 6.80 38.39 8.08 38.39 9.91C38.39 11.75 37.13 13.02 35.36 13.02C33.61 13.02 32.34 11.75 32.34 9.91ZM40.03 12.56C40.70 13.20 41.68 13.57 42.70 13.57C44.02 13.57 45.23 12.96 45.23 11.61C45.23 9.03 40.98 10.00 40.98 8.04C40.98 7.17 41.78 6.78 42.80 6.78C43.50 6.78 44.14 6.97 44.65 7.29L44.90 6.82C44.32 6.47 43.62 6.24 42.81 6.24C41.52 6.24 40.42 6.80 40.42 8.08C40.42 10.58 44.73 9.65 44.67 11.70C44.63 12.63 43.75 13.03 42.73 13.03C41.80 13.03 40.92 12.70 40.29 12.11ZM46.42 9.90C46.42 12.05 47.95 13.57 50.02 13.57C52.11 13.57 53.62 12.05 53.62 9.90C53.62 7.77 52.11 6.24 50.02 6.24C47.95 6.24 46.42 7.77 46.42 9.90ZM47.00 9.91C47.00 8.08 48.27 6.80 50.02 6.80C51.79 6.80 53.05 8.08 53.05 9.91C53.05 11.75 51.79 13.02 50.02 13.02C48.27 13.02 47.00 11.75 47.00 9.91ZM54.98 6.94L55.90 6.94L55.90 13.55L56.48 13.55L56.48 6.94L58.73 6.94L58.73 6.44L56.48 6.44L56.48 5.45C56.48 4.41 57.18 3.70 58.07 3.71C58.49 3.71 58.93 3.88 59.28 4.14L59.54 3.67C59.14 3.35 58.59 3.15 58.06 3.15C56.90 3.14 55.90 4.07 55.90 5.49L55.90 6.44L54.98 6.44ZM59.22 6.94L60.28 6.94L60.28 11.54C60.28 12.91 60.90 13.58 61.94 13.57C62.48 13.57 63 13.37 63.46 13.05L63.24 12.57C62.86 12.84 62.43 12.99 62.01 12.99C61.25 13.01 60.84 12.50 60.84 11.47L60.84 6.94L63.32 6.94L63.32 6.44L60.84 6.44L60.84 4.63L60.28 4.63L60.28 6.44L59.22 6.44Z"></path></g><!----><!----></svg>